# xmcd
#
# Track frame offsets: 
#        150
#        17325
#        30988
#        45011
#        62869
#        81568
#        99837
#        117870
#
# Disc length: 1736 seconds
#
# Revision: 0
# Processed by: cddbd v1.5.2PL0 Copyright (c) Steve Scherf et al.
# Submitted via: ExactAudioCopy v1.3
#
DISCID=4f06c608
DTITLE=TSBluesone - 'Na spiranza
DYEAR=2020
DGENRE=Blues
TTITLE0=Sempri no
TTITLE1=C'ama fari
TTITLE2=Solite ragioni
TTITLE3=Canta ca passa
TTITLE4=Segno
TTITLE5=Uno come me
TTITLE6=Non ni vogghiu
TTITLE7='Na spiranza
EXTD=
EXTT0=
EXTT1=
EXTT2=
EXTT3=
EXTT4=
EXTT5=
EXTT6=
EXTT7=
PLAYORDER=
